<svg id="back_arrow" data-name="back arrow" xmlns="http://www.w3.org/2000/svg" width="10" height="18" viewBox="0 0 10 18">
  <rect id="back_arrow_Frame_Background_" data-name="back arrow [Frame Background]" width="10" height="18" fill="none"/>
  <path id="Vector" d="M9.6,15.726a1.394,1.394,0,0,1-.026,1.881,1.261,1.261,0,0,1-.9.392,1.287,1.287,0,0,1-.913-.365L.378,9.974A1.343,1.343,0,0,1,.1,9.541,1.391,1.391,0,0,1,0,9.027,1.52,1.52,0,0,1,.1,8.5a1.342,1.342,0,0,1,.274-.433L7.757.406a1.324,1.324,0,0,1,.417-.3A1.373,1.373,0,0,1,8.683,0a1.307,1.307,0,0,1,.508.095,1.549,1.549,0,0,1,.43.3A1.4,1.4,0,0,1,9.9.839a1.192,1.192,0,0,1,.1.528,1.391,1.391,0,0,1-.1.514,1.406,1.406,0,0,1-.3.447l-6.454,6.7,1.226,1.259Z" fill="#181725"/>
</svg>
