<svg xmlns="http://www.w3.org/2000/svg" width="21.614" height="16" viewBox="0 0 21.614 16">
  <g id="card" transform="translate(-343.986 -173)">
    <path id="Vector" d="M21.614.982V15.018a.982.982,0,0,1-.982.982H.982A.982.982,0,0,1,0,15.018V.982A.982.982,0,0,1,.982,0H20.632a.982.982,0,0,1,.982.982Z" transform="translate(343.986 173)" fill="#5286f9"/>
    <path id="Vector-2" data-name="Vector" d="M0,.783A4.256,4.256,0,1,1,2.456,8.515,4.233,4.233,0,0,1,0,7.731a4.29,4.29,0,0,0,.75-.678,4.274,4.274,0,0,0,.559-.812A4.23,4.23,0,0,0,1.8,4.257a4.23,4.23,0,0,0-.492-1.984A4.275,4.275,0,0,0,.75,1.462,4.3,4.3,0,0,0,0,.783Z" transform="translate(354.793 176.743)" fill="#ffb655"/>
    <path id="Vector-3" data-name="Vector" d="M8.515,4.257a4.23,4.23,0,0,1-.492,1.984,4.291,4.291,0,0,1-1.309,1.49A4.256,4.256,0,1,1,4.257,0,4.232,4.232,0,0,1,6.713.783,4.29,4.29,0,0,1,8.023,2.274,4.23,4.23,0,0,1,8.515,4.257Z" transform="translate(348.08 176.743)" fill="#d8143a"/>
    <path id="Vector-4" data-name="Vector" d="M10.807,11.474V16H.982A.982.982,0,0,1,0,15.018V.982A.982.982,0,0,1,.982,0h9.825V4.526a4.257,4.257,0,1,0,0,6.948Z" transform="translate(343.986 173)" fill="#3d6deb"/>
  </g>
</svg>
