<svg xmlns="http://www.w3.org/2000/svg" width="48.47" height="56.365" viewBox="0 0 48.47 56.365">
  <g id="Group" transform="translate(-182.765 -485.257)">
    <path id="Vector" d="M4.84,13.74A19.911,19.911,0,0,0,.726,11.933,31.459,31.459,0,0,1,.1,3.48a3.93,3.93,0,0,1,7.808.9C7.582,7.223,6.227,10.465,4.84,13.74Zm16.2,5.323a32.008,32.008,0,0,1-8.4,1.855,21.387,21.387,0,0,0-2.823-3.4c2.742-2.307,5.469-4.549,8.1-5.694a3.945,3.945,0,0,1,3.129,7.243ZM17.277,8.82c-1.968,2.646-5.388,5.065-8.679,7.549-.339-.274-.678-.548-1-.807-.436-.339-.887-.661-1.371-.984,1.436-3.855,2.758-7.808,4.726-10.453A3.938,3.938,0,0,1,17.277,8.82Z" transform="translate(207.822 485.257)" fill="#fff" fill-rule="evenodd"/>
    <path id="Vector-2" data-name="Vector" d="M34.027,22.069a46.66,46.66,0,0,1-3.872,3.694q-2.879,2.492-5.856,4.823c-2.129-1.307-3.662-1.968-3.92-1.629-.226.306.661,1.436,2.258,2.9a101.765,101.765,0,0,1-17.1,10.389c-.952.452-1.952.774-2.936,1.129a2.554,2.554,0,0,1-.645.113C.409,43.669-.059,43.25.006,41.83c.194-4.42,1.565-8.566,2.984-12.7q.581-1.694,1.21-3.388c2.145,1.307,3.678,1.984,3.936,1.645.274-.371-1.016-1.855-3.178-3.71a103.3,103.3,0,0,1,5.307-11.711c4.065,3.017,7.679,5,8.082,4.452s-2.581-3.468-6.694-6.517l-.177-.129c.71-1.21,1.452-2.42,2.242-3.6A36.344,36.344,0,0,1,17.1,2.018,5.9,5.9,0,0,1,23.074.179c7.388,1.645,12.518,5.888,14.938,13.163a5.245,5.245,0,0,1-.71,4.275,21.482,21.482,0,0,1-1.71,2.565c-3.9-2.855-7.291-4.694-7.679-4.178-.371.516,2.323,3.178,6.114,6.065Z" transform="translate(182.765 498.092)" fill="#fff"/>
  </g>
</svg>
