<svg id="bookmark_1" data-name="bookmark 1" xmlns="http://www.w3.org/2000/svg" width="24" height="24" viewBox="0 0 24 24">
  <rect id="bookmark_1_Frame_Background_" data-name="bookmark 1 [Frame Background]" width="24" height="24" fill="none"/>
  <path id="Vector" d="M3.595,8.81l7.824,7.824L19.243,8.81a3.689,3.689,0,1,0-5.216-5.216L11.419,6.2,8.811,3.6A3.688,3.688,0,0,0,3.595,8.81ZM10.55,1.854l.869.869.869-.869a6.147,6.147,0,1,1,8.693,8.693l-8.692,8.693a1.229,1.229,0,0,1-1.74,0L1.856,10.549a6.147,6.147,0,1,1,8.692-8.693Z" transform="translate(1.1 2.199)" fill="#181725"/>
</svg>
