<svg xmlns="http://www.w3.org/2000/svg" width="267.416" height="63.61" viewBox="0 0 267.416 63.61">
  <g id="logo" transform="translate(-73.292 -413.695)">
    <g id="Group">
      <path id="Vector" d="M110.491,418.642a4.435,4.435,0,1,0-8.811-1.019,35.469,35.469,0,0,0,.71,9.539,22.538,22.538,0,0,1,4.642,2.039C108.6,425.506,110.127,421.846,110.491,418.642Zm17.13,10.7a4.441,4.441,0,0,0-5.843-2.312c-2.968,1.292-6.044,3.823-9.139,6.426a24.163,24.163,0,0,1,3.186,3.841,36.152,36.152,0,0,0,9.484-2.093A4.466,4.466,0,0,0,127.621,429.347Zm-7.482-11.906a4.441,4.441,0,0,0-6.208.91c-2.221,2.986-3.713,7.446-5.334,11.8.547.364,1.056.728,1.548,1.11.364.292.746.6,1.128.91,3.714-2.8,7.574-5.534,9.795-8.519A4.445,4.445,0,0,0,120.139,417.441Z" fill="#fff" fill-rule="evenodd"/>
      <path id="Vector_2" d="M111.692,453.086a52.771,52.771,0,0,1-4.369,4.169q-3.249,2.813-6.608,5.443c-2.4-1.475-4.133-2.221-4.424-1.839-.255.346.746,1.62,2.549,3.277a114.835,114.835,0,0,1-19.3,11.724c-1.074.51-2.2.874-3.313,1.274a2.846,2.846,0,0,1-.728.128c-1.748.2-2.276-.273-2.2-1.875.218-4.988,1.766-9.667,3.368-14.328q.655-1.911,1.365-3.823c2.421,1.475,4.151,2.24,4.442,1.857.31-.418-1.147-2.093-3.586-4.187a116.48,116.48,0,0,1,5.989-13.216c4.588,3.4,8.665,5.643,9.121,5.024s-2.913-3.914-7.555-7.355l-.2-.145c.8-1.366,1.639-2.731,2.531-4.06a41.019,41.019,0,0,1,3.823-4.7,6.662,6.662,0,0,1,6.736-2.075c8.338,1.857,14.127,6.645,16.858,14.855a5.921,5.921,0,0,1-.8,4.824,24.241,24.241,0,0,1-1.93,2.895c-4.406-3.222-8.229-5.3-8.665-4.715C104.374,446.823,107.414,449.827,111.692,453.086Z" fill="#fff"/>
    </g>
    <g id="Group_2">
      <g id="Group_3">
        <path id="Vector_3" d="M165.4,423.4c-5.771,0-9.521,2.312-11.8,6.7h-.128v-2.731a3.559,3.559,0,0,0-7.118,0v30.2a3.558,3.558,0,0,0,3.55,3.568h.346a3.574,3.574,0,0,0,3.568-3.568V439.587c0-5.881,3.368-9.8,8.993-9.8,5.462,0,8.083,3.168,8.083,8.83v18.951a3.558,3.558,0,0,0,3.55,3.568h.346a3.558,3.558,0,0,0,3.55-3.568V437.22C178.34,428.627,173.643,423.4,165.4,423.4Z" fill="#fff"/>
        <path id="Vector_4" d="M201.369,423.33c-10.432,0-17.24,7.609-17.24,19.279,0,11.687,6.736,18.969,17.549,18.969,6.7,0,12.234-2.967,14.728-7.591a2.582,2.582,0,0,0-2.276-3.787h-1.893a2.651,2.651,0,0,0-2.257,1.365c-1.438,2.476-4.46,3.969-8.156,3.969-6.117,0-10.177-4.26-10.177-10.723v-.436H215.5a2.6,2.6,0,0,0,2.585-2.586v-.036C218.081,430.448,211.618,423.33,201.369,423.33Zm-9.685,15.747c.419-5.735,4.3-9.667,9.667-9.667,5.425,0,9.1,3.86,9.266,9.667Z" fill="#fff"/>
        <path id="Vector_5" d="M252.8,448.6h-1.984a2.6,2.6,0,0,0-2.4,1.675c-1.292,3.295-4.242,5.061-8.429,5.061-5.989,0-10.031-4.824-10.031-12.853,0-7.846,3.987-12.852,10-12.852,4.333,0,7.227,2.148,8.41,5.206a2.633,2.633,0,0,0,2.44,1.73h1.984a2.556,2.556,0,0,0,2.458-3.332c-1.912-5.625-7.373-9.9-15.365-9.9-10.541,0-17.495,7.537-17.495,19.151,0,11.815,6.973,19.1,17.568,19.1,7.591,0,13.235-3.714,15.31-9.594A2.569,2.569,0,0,0,252.8,448.6Z" fill="#fff"/>
        <path id="Vector_6" d="M275.153,455.279a3.017,3.017,0,0,0-.4-.036c-2.457-.291-3.6-1.821-3.6-4.7V429.7h4.2a2.941,2.941,0,1,0,0-5.881h-4.2v-4.678a3.705,3.705,0,1,0-7.41,0v4.678h-2.221a2.941,2.941,0,1,0,0,5.881h2.221v21.609c0,7.209,2.877,10.067,10.341,10.067h.036a3.982,3.982,0,0,0,2.294-.71.063.063,0,0,0,.036-.018,3.01,3.01,0,0,0,1.275-2.44A2.95,2.95,0,0,0,275.153,455.279Z" fill="#fff"/>
        <path id="Vector_7" d="M299.365,423.33c-5.825,0-10.631,2.366-13.089,6.026a3.586,3.586,0,0,0-.6,1.948,3.515,3.515,0,0,0,3.514,3.513,3.3,3.3,0,0,0,2.912-1.693c1.2-2.257,3.769-3.641,7.064-3.641,4.988,0,7.828,2.348,7.828,6.608v.456a2.559,2.559,0,0,1-2.421,2.566l-7.646.437c-9.212.583-14.255,4.369-14.255,10.9,0,6.663,5.152,11.05,12.616,11.05,5.079,0,9.722-2.53,11.779-6.59h.164v2.658a3.543,3.543,0,0,0,3.568,3.568,3.558,3.558,0,0,0,3.55-3.568V435.545C314.348,428.154,308.468,423.33,299.365,423.33Zm7.628,23.793c0,4.9-4.187,8.447-9.721,8.447-4.3,0-7.082-2.057-7.082-5.261,0-3.295,2.658-5.188,7.737-5.5l9.066-.618Z" fill="#fff"/>
        <path id="Vector_8" d="M338.105,423.439a8.953,8.953,0,0,0-9.011,6.663h-.128v-2.731a3.559,3.559,0,0,0-7.118,0v30.038a3.732,3.732,0,0,0,7.464,0V438.877c0-5.262,3.1-8.666,8.01-8.666.2,0,.419,0,.619.018a2.7,2.7,0,0,0,2.767-2.73V426.06A2.618,2.618,0,0,0,338.105,423.439Z" fill="#fff"/>
      </g>
      <path id="Vector_9" d="M277.72,458.21a3.007,3.007,0,0,1-1.275,2.44.063.063,0,0,1-.036.018,2.877,2.877,0,0,1-1.657.51,2.963,2.963,0,1,1,2.968-2.968Z" fill="#fff"/>
    </g>
  </g>
</svg>
