<svg id="store_1" data-name="store 1" xmlns="http://www.w3.org/2000/svg" width="24" height="24" viewBox="0 0 24 24">
  <rect id="store_1_Frame_Background_" data-name="store 1 [Frame Background]" width="24" height="24" fill="none"/>
  <g id="Vector" transform="translate(2 2)" fill="#181725">
    <path d="M 9.000005722045898 19.95000076293945 L 7.00000524520874 19.95000076293945 C 6.878295421600342 19.94997024536133 6.75591516494751 19.93848991394043 6.636295318603516 19.91587066650391 L 6.63169527053833 19.91500091552734 L 6.627005100250244 19.91500091552734 L 3.011005401611328 19.91500091552734 C 2.490135431289673 19.91500091552734 2.000445365905762 19.71216011047363 1.632155299186707 19.3438606262207 C 1.263845324516296 18.97554969787598 1.061005353927612 18.48586082458496 1.061005353927612 17.96500015258789 L 1.061005353927612 7.244999885559082 L 1.061005353927612 7.124289989471436 L 1.008162975311279 7.177126407623291 C 0.7099869847297668 6.90497350692749 0.4748459458351135 6.58021068572998 0.3088953197002411 6.211180210113525 C 0.1365153193473816 5.827859878540039 0.04941531643271446 5.420380115509033 0.04999531432986259 5.000070095062256 L 0.04999531432986259 3 C 0.04999531432986259 2.212019920349121 0.3568553030490875 1.47121000289917 0.9140453338623047 0.9140400290489197 C 1.4712153673172 0.3568499982357025 2.212015390396118 0.05000000074505806 2.999995231628418 0.05000000074505806 L 16.99999618530273 0.05000000074505806 C 17.7879753112793 0.05000000074505806 18.52878570556641 0.3568499982357025 19.08596611022949 0.9140400290489197 C 19.64314460754395 1.47121000289917 19.94999504089355 2.212019920349121 19.94999504089355 3 L 19.94999504089355 5 C 19.94999504089355 5.832600116729736 19.59625625610352 6.630070209503174 18.97946548461914 7.187920093536377 L 18.96300506591797 7.202809810638428 L 18.96300506591797 7.224999904632568 L 18.96300506591797 17.96500015258789 C 18.96300506591797 18.48586082458496 18.76016616821289 18.97554969787598 18.39185523986816 19.34384918212891 C 18.02354621887207 19.71216011047363 17.53385543823242 19.91500091552734 17.01300621032715 19.91500091552734 L 9.373004913330078 19.91500091552734 L 9.368315696716309 19.91500091552734 L 9.363715171813965 19.91587066650391 C 9.244094848632812 19.93848991394043 9.121715545654297 19.94997024536133 8.999995231628418 19.95000076293945 L 9.000005722045898 19.95000076293945 Z M 6.999995231628418 11.05000019073486 L 8.999995231628418 11.05000019073486 C 9.520865440368652 11.05000019073486 10.01055526733398 11.25284004211426 10.37885570526123 11.62115001678467 C 10.74716567993164 11.98945999145508 10.94999504089355 12.47914028167725 10.94999504089355 13 L 10.94999504089355 17.96500015258789 L 10.94999504089355 18.01499938964844 L 10.99999523162842 18.01499938964844 L 17.01300621032715 18.01499938964844 L 17.0630054473877 18.01499938964844 L 17.0630054473877 17.96500015258789 L 17.0630054473877 8 L 17.0630054473877 7.949999809265137 L 17.01300621032715 7.949999809265137 L 14.99999523162842 7.949999809265137 C 14.27232551574707 7.949999809265137 13.57389545440674 7.683209896087646 13.03336524963379 7.198770046234131 L 12.99998569488525 7.168839931488037 L 12.9666051864624 7.198780059814453 C 12.42657566070557 7.683199882507324 11.7296257019043 7.949989795684814 11.00412559509277 7.949999809265137 L 8.999995231628418 7.949999809265137 C 8.27232551574707 7.949999809265137 7.573895454406738 7.683209896087646 7.033365249633789 7.198770046234131 L 6.999985218048096 7.168839931488037 L 6.966605186462402 7.198780059814453 C 6.426565170288086 7.683209896087646 5.729605197906494 7.949999809265137 5.004125118255615 7.949999809265137 L 3.010005235671997 7.949999809265137 L 2.960005283355713 7.949999809265137 L 2.960005283355713 8 L 2.960005283355713 17.96500015258789 L 2.960005283355713 18.01499938964844 L 3.010005235671997 18.01499938964844 L 4.999995231628418 18.01499938964844 L 5.049995422363281 18.01499938964844 L 5.049995422363281 17.96500015258789 L 5.049995422363281 13 C 5.049995422363281 12.47912979125977 5.252835273742676 11.98943996429443 5.621135234832764 11.62115001678467 C 5.989455223083496 11.25284004211426 6.479145526885986 11.05000019073486 6.999995231628418 11.05000019073486 Z M 6.949995517730713 12.94999980926514 L 6.949995517730713 13 L 6.949995517730713 17.96500015258789 L 6.949995517730713 18.01499938964844 L 6.999995231628418 18.01499938964844 L 8.999995231628418 18.01499938964844 L 9.049995422363281 18.01499938964844 L 9.049995422363281 17.96500015258789 L 9.049995422363281 13 L 9.049995422363281 12.94999980926514 L 8.999995231628418 12.94999980926514 L 6.999995231628418 12.94999980926514 L 6.949995517730713 12.94999980926514 Z M 13.94999504089355 1.950000047683716 L 13.94999504089355 2 L 13.94999504089355 5 C 13.94999504089355 5.280459880828857 14.0592155456543 5.544139862060547 14.25752544403076 5.742459774017334 C 14.45584487915039 5.940780162811279 14.71952533721924 6.050000190734863 14.99999523162842 6.050000190734863 L 16.99999618530273 6.050000190734863 C 17.28045463562012 6.050000190734863 17.54413604736328 5.940780162811279 17.74245452880859 5.742469787597656 C 17.94077491760254 5.544149875640869 18.04999542236328 5.28046989440918 18.04999542236328 5 L 18.04999542236328 3 C 18.04999542236328 2.719540119171143 17.94077491760254 2.455859899520874 17.74246597290039 2.257539987564087 C 17.54414558410645 2.0592200756073 17.28046607971191 1.950000047683716 16.99999618530273 1.950000047683716 L 13.99999523162842 1.950000047683716 L 13.94999504089355 1.950000047683716 Z M 7.949995517730713 1.950000047683716 L 7.949995517730713 2 L 7.949995517730713 5 C 7.949995517730713 5.280459880828857 8.059215545654297 5.544139862060547 8.257525444030762 5.742459774017334 C 8.455844879150391 5.940780162811279 8.719525337219238 6.050000190734863 8.999995231628418 6.050000190734863 L 10.99999523162842 6.050000190734863 C 11.2804651260376 6.050000190734863 11.54414558410645 5.940780162811279 11.74246501922607 5.742469787597656 C 11.94078540802002 5.544159889221191 12.04999542236328 5.280479907989502 12.04999542236328 5 L 12.04999542236328 2 L 12.04999542236328 1.950000047683716 L 11.99999523162842 1.950000047683716 L 7.999995231628418 1.950000047683716 L 7.949995517730713 1.950000047683716 Z M 2.999995231628418 1.950000047683716 C 2.719545364379883 1.950000047683716 2.455865383148193 2.0592200756073 2.257545232772827 2.257529973983765 C 2.059215307235718 2.455859899520874 1.949995279312134 2.719540119171143 1.949995279312134 3 L 1.949995279312134 5 C 1.949995279312134 5.280449867248535 2.059215307235718 5.544129848480225 2.257535219192505 5.742459774017334 C 2.455855369567871 5.940780162811279 2.719535350799561 6.050000190734863 2.999995231628418 6.050000190734863 L 4.999995231628418 6.050000190734863 C 5.280455112457275 6.050000190734863 5.544135093688965 5.940780162811279 5.74245548248291 5.742469787597656 C 5.940775394439697 5.544149875640869 6.049995422363281 5.28046989440918 6.049995422363281 5 L 6.049995422363281 2 L 6.049995422363281 1.950000047683716 L 5.999995231628418 1.950000047683716 L 2.999995231628418 1.950000047683716 Z M 14.99999523162842 15.94999980926514 L 13.99999523162842 15.94999980926514 C 13.74624538421631 15.94999980926514 13.50767517089844 15.85118007659912 13.3282356262207 15.67175006866455 C 13.1488151550293 15.49232959747314 13.04999542236328 15.25376033782959 13.04999542236328 15 L 13.04999542236328 12 C 13.04999542236328 11.74625015258789 13.1488151550293 11.50767993927002 13.32824516296387 11.32824039459229 C 13.50766563415527 11.14881992340088 13.74623489379883 11.05000019073486 13.99999523162842 11.05000019073486 L 14.99999523162842 11.05000019073486 C 15.25375556945801 11.05000019073486 15.49232578277588 11.14881992340088 15.67176532745361 11.32824993133545 C 15.8511848449707 11.50767040252686 15.94999504089355 11.74623966217041 15.94999504089355 12 L 15.94999504089355 15 C 15.94999504089355 15.25374984741211 15.8511848449707 15.4923095703125 15.67175579071045 15.67175960540771 C 15.49233531951904 15.85118007659912 15.25375556945801 15.94999980926514 14.99999523162842 15.94999980926514 Z" stroke="none"/>
    <path d="M 2.999996185302734 0.1000003814697266 C 2.225376129150391 0.1000003814697266 1.497125625610352 0.4016494750976562 0.9493846893310547 0.9493904113769531 C 0.4016456604003906 1.497129440307617 0.09999465942382812 2.225379943847656 0.09999465942382812 3 L 0.09999465942382812 5.000140190124512 C 0.09943580627441406 5.413310050964355 0.1850547790527344 5.813870429992676 0.3544960021972656 6.190670013427734 C 0.5111503601074219 6.53901195526123 0.7304935455322266 6.84721565246582 1.007200241088867 7.108044624328613 L 1.111005783081055 7.005270004272461 L 1.111005783081055 17.96500015258789 C 1.111005783081055 18.47249984741211 1.308635711669922 18.94963073730469 1.667495727539062 19.30850028991699 C 2.026365280151367 19.66736030578613 2.503496170043945 19.86499977111816 3.011005401611328 19.86499977111816 L 6.645585060119629 19.86673927307129 C 6.762155532836914 19.88878059387207 6.881404876708984 19.89996910095215 7.000005722045898 19.89999961853027 L 8.999985694885254 19.89999961853027 C 9.118605613708496 19.89996910095215 9.237854957580566 19.88878059387207 9.354425430297852 19.86673927307129 L 9.373004913330078 19.86499977111816 L 17.01299476623535 19.86499977111816 C 17.5204963684082 19.86499977111816 17.99762535095215 19.66736030578613 18.35649490356445 19.30850028991699 C 18.71535491943359 18.94964027404785 18.91299438476562 18.47250938415527 18.91299438476562 17.96500015258789 L 18.91299438476562 7.180609703063965 L 18.94591522216797 7.150830268859863 C 19.55224609375 6.602450370788574 19.89999580383301 5.818499565124512 19.89999580383301 5 L 19.89999580383301 3 C 19.89999580383301 2.225379943847656 19.59834480285645 1.497119903564453 19.05061531066895 0.9493904113769531 C 18.50286483764648 0.4016494750976562 17.77460479736328 0.1000003814697266 16.99999618530273 0.1000003814697266 L 2.999996185302734 0.1000003814697266 M 4.999995231628418 6.100000381469727 L 2.999996185302734 6.100000381469727 C 2.706174850463867 6.100000381469727 2.429935455322266 5.985580444335938 2.222175598144531 5.777819633483887 C 2.014415740966797 5.570050239562988 1.899995803833008 5.29380989074707 1.899995803833008 5 L 1.899995803833008 3 C 1.899995803833008 2.706180572509766 2.014415740966797 2.429939270019531 2.222175598144531 2.222179412841797 C 2.42994499206543 2.014419555664062 2.706184387207031 1.899999618530273 2.999996185302734 1.899999618530273 L 6.099995613098145 1.899999618530273 L 6.099995613098145 5 C 6.099995613098145 5.293820381164551 5.985575675964355 5.570059776306152 5.777814865112305 5.777819633483887 C 5.570045471191406 5.985580444335938 5.293805122375488 6.100000381469727 4.999995231628418 6.100000381469727 M 10.99999523162842 6.100000381469727 L 8.999995231628418 6.100000381469727 C 8.706174850463867 6.100000381469727 8.429935455322266 5.985580444335938 8.222175598144531 5.777819633483887 C 8.014415740966797 5.570050239562988 7.899994850158691 5.29380989074707 7.899994850158691 5 L 7.899994850158691 1.899999618530273 L 12.09999465942383 1.899999618530273 L 12.09999465942383 5 C 12.09999465942383 5.293829917907715 11.98557567596436 5.570070266723633 11.77782535552979 5.777819633483887 C 11.57004547119141 5.985580444335938 11.29380512237549 6.100000381469727 10.99999523162842 6.100000381469727 M 16.99999618530273 6.100000381469727 L 14.99999523162842 6.100000381469727 C 14.70617485046387 6.100000381469727 14.42993545532227 5.985580444335938 14.22217559814453 5.777819633483887 C 14.0144157409668 5.570050239562988 13.89999580383301 5.29380989074707 13.89999580383301 5 L 13.89999580383301 1.899999618530273 L 16.99999618530273 1.899999618530273 C 17.29381561279297 1.899999618530273 17.57005500793457 2.014419555664062 17.7778148651123 2.222179412841797 C 17.98557472229004 2.429950714111328 18.09999465942383 2.70619010925293 18.09999465942383 3 L 18.09999465942383 5 C 18.09999465942383 5.293820381164551 17.98557472229004 5.570059776306152 17.7778148651123 5.777819633483887 C 17.57004547119141 5.985580444335938 17.2938060760498 6.100000381469727 16.99999618530273 6.100000381469727 M 11.00412559509277 7.899999618530273 C 11.71727561950684 7.899999618530273 12.40237522125244 7.637749671936035 12.93322563171387 7.16156005859375 L 12.99996566772461 7.101690292358398 L 13.06673526763916 7.161529541015625 C 13.59808540344238 7.637740135192871 14.28466510772705 7.899999618530273 14.99999523162842 7.899999618530273 L 17.11299514770508 7.899999618530273 L 17.11299514770508 18.06500053405762 L 10.89999485015869 18.06500053405762 L 10.89999485015869 13 C 10.89999485015869 12.49250030517578 10.70235538482666 12.0153694152832 10.34349536895752 11.6564998626709 C 9.984635353088379 11.29763984680176 9.507505416870117 11.10000038146973 8.999995231628418 11.10000038146973 L 6.999995231628418 11.10000038146973 C 6.492485046386719 11.10000038146973 6.015365600585938 11.29763984680176 5.656505584716797 11.6564998626709 C 5.297635078430176 12.01535987854004 5.099995613098145 12.4924898147583 5.099995613098145 13 L 5.099995613098145 18.06500053405762 L 2.909996032714844 18.06500053405762 L 2.909996032714844 7.899999618530273 L 5.004125595092773 7.899999618530273 C 5.71728515625 7.899999618530273 6.402375221252441 7.637749671936035 6.933225631713867 7.16156005859375 L 6.999965667724609 7.101690292358398 L 7.06673526763916 7.161529541015625 C 7.598085403442383 7.637740135192871 8.284665107727051 7.899999618530273 8.999995231628418 7.899999618530273 L 11.00412559509277 7.899999618530273 M 9.099995613098145 17.96599960327148 L 8.999995231628418 17.96549987792969 L 8.999995231628418 18.06500053405762 L 6.899994850158691 18.06500053405762 L 6.899994850158691 12.89999961853027 L 9.099995613098145 12.89999961853027 L 9.099995613098145 17.96599960327148 M 13.99999523162842 11.10000038146973 C 13.75959587097168 11.10000038146973 13.53358554840088 11.19361972808838 13.36359596252441 11.36359977722168 C 13.1936149597168 11.53359031677246 13.09999465942383 11.75961017608643 13.09999465942383 12 L 13.09999465942383 15 C 13.09999465942383 15.24040031433105 13.1936149597168 15.46640968322754 13.36359596252441 15.63640022277832 C 13.53358554840088 15.8063793182373 13.75960540771484 15.89999961853027 13.99999523162842 15.89999961853027 L 14.99999523162842 15.89999961853027 C 15.24039554595947 15.89999961853027 15.46640586853027 15.8063793182373 15.63639545440674 15.63640022277832 C 15.80637550354004 15.46640968322754 15.89999580383301 15.24038982391357 15.89999580383301 15 L 15.89999580383301 12 C 15.89999580383301 11.75959968566895 15.80637550354004 11.53359031677246 15.63639545440674 11.36359977722168 C 15.46640586853027 11.19361972808838 15.24038505554199 11.10000038146973 14.99999523162842 11.10000038146973 L 13.99999523162842 11.10000038146973 M 2.999996185302734 0 L 16.99999618530273 0 C 17.79564476013184 0 18.5587043762207 0.316070556640625 19.12132453918457 0.8786792755126953 C 19.68393516540527 1.441289901733398 19.99999618530273 2.204349517822266 19.99999618530273 3 L 19.99999618530273 5 C 19.99999618530273 5.881999969482422 19.62000465393066 6.675999641418457 19.01299476623535 7.225000381469727 L 19.01299476623535 17.96500015258789 C 19.01299476623535 18.49542999267578 18.80228614807129 19.00414085388184 18.42720603942871 19.37920951843262 C 18.0521354675293 19.75428009033203 17.54342460632324 19.96500015258789 17.01299476623535 19.96500015258789 L 9.373004913330078 19.96500015258789 C 9.250035285949707 19.98825073242188 9.125155448913574 19.99996948242188 9.000005722045898 20 L 7.000005722045898 20 C 6.874855041503906 19.99996948242188 6.749975204467773 19.98825073242188 6.627005577087402 19.96500015258789 L 3.011005401611328 19.96500015258789 C 2.480566024780273 19.96500015258789 1.971864700317383 19.7542896270752 1.596784591674805 19.37920951843262 C 1.221725463867188 19.00414085388184 1.011005401611328 18.49542999267578 1.011005401611328 17.96500015258789 L 1.011005401611328 7.244999885559082 L 1.009994506835938 7.246000289916992 C 0.6919746398925781 6.964690208435059 0.4374446868896484 6.618929862976074 0.2632961273193359 6.231690406799316 C 0.08916473388671875 5.844449996948242 -0.0005855560302734375 5.424590110778809 -3.814697265625e-06 5 L -3.814697265625e-06 3 C -3.814697265625e-06 2.204349517822266 0.3160648345947266 1.441289901733398 0.8786754608154297 0.8786792755126953 C 1.441286087036133 0.316070556640625 2.204345703125 0 2.999996185302734 0 Z M 4.999995231628418 6 C 5.265225410461426 6 5.519565582275391 5.89463996887207 5.70710563659668 5.707110404968262 C 5.894645690917969 5.519570350646973 5.999995231628418 5.265219688415527 5.999995231628418 5 L 5.999995231628418 2 L 2.999996185302734 2 C 2.734775543212891 2 2.480424880981445 2.10536003112793 2.292884826660156 2.292890548706055 C 2.105344772338867 2.480430603027344 1.999996185302734 2.734779357910156 1.999996185302734 3 L 1.999996185302734 5 C 1.999996185302734 5.265219688415527 2.105356216430664 5.519570350646973 2.292884826660156 5.707110404968262 C 2.480424880981445 5.894650459289551 2.734775543212891 6 2.999996185302734 6 L 4.999995231628418 6 Z M 10.99999523162842 6 C 11.26521492004395 6 11.51956558227539 5.89463996887207 11.70711517333984 5.707110404968262 C 11.89465522766113 5.519570350646973 11.99999523162842 5.265219688415527 11.99999523162842 5 L 11.99999523162842 2 L 7.999995231628418 2 L 7.999995231628418 5 C 7.999995231628418 5.265219688415527 8.105355262756348 5.519570350646973 8.292885780334473 5.707110404968262 C 8.480424880981445 5.894650459289551 8.734775543212891 6 8.999995231628418 6 L 10.99999523162842 6 Z M 16.99999618530273 6 C 17.26522445678711 6 17.51956558227539 5.89463996887207 17.70710563659668 5.707110404968262 C 17.89464569091797 5.519570350646973 17.99999618530273 5.265219688415527 17.99999618530273 5 L 17.99999618530273 3 C 17.99999618530273 2.734779357910156 17.89463424682617 2.480430603027344 17.70710563659668 2.292890548706055 C 17.51956558227539 2.105350494384766 17.26521492004395 2 16.99999618530273 2 L 13.99999523162842 2 L 13.99999523162842 5 C 13.99999523162842 5.265219688415527 14.10535526275635 5.519570350646973 14.29288482666016 5.707110404968262 C 14.48042488098145 5.894650459289551 14.73477554321289 6 14.99999523162842 6 L 16.99999618530273 6 Z M 11.00413036346436 8.000002861022949 C 11.00273418426514 8.000002861022949 11.00139236450195 8.000001907348633 10.99999523162842 8 L 8.999995231628418 8 C 8.231995582580566 8 7.529994964599609 7.711000442504883 6.999995231628418 7.236000061035156 C 6.450545310974121 7.728879928588867 5.738659858703613 8.000763893127441 4.999995231628418 8 L 3.009994506835938 8 L 3.009994506835938 17.96500015258789 L 4.999995231628418 17.96500015258789 L 4.999995231628418 13 C 4.999995231628418 12.46957015991211 5.210715293884277 11.96086025238037 5.585795402526855 11.58578968048096 C 5.960855484008789 11.21072006225586 6.469565391540527 11 6.999995231628418 11 L 8.999995231628418 11 C 9.530425071716309 11 10.03913497924805 11.21070957183838 10.41420555114746 11.58578968048096 C 10.78927516937256 11.96086025238037 10.99999523162842 12.46957015991211 10.99999523162842 13 L 10.99999523162842 17.96500015258789 L 17.01299476623535 17.96500015258789 L 17.01299476623535 8 L 14.99999523162842 8 C 14.23199462890625 8 13.52999496459961 7.711000442504883 12.99999523162842 7.236000061035156 C 12.45157432556152 7.727947235107422 11.74076557159424 8.000002861022949 11.00413036346436 8.000002861022949 Z M 8.999995231628418 17.96500015258789 L 8.999995231628418 13 L 6.999995231628418 13 L 6.999995231628418 17.96500015258789 L 8.999995231628418 17.96500015258789 Z M 13.99999523162842 11 L 14.99999523162842 11 C 15.26521492004395 11 15.51956558227539 11.10536003112793 15.70710563659668 11.29288959503174 C 15.89464569091797 11.48042964935303 15.99999523162842 11.73478031158447 15.99999523162842 12 L 15.99999523162842 15 C 15.99999523162842 15.26522064208984 15.89463520050049 15.51956939697266 15.70710563659668 15.70710945129395 C 15.51956558227539 15.89464950561523 15.26522541046143 16 14.99999523162842 16 L 13.99999523162842 16 C 13.73477554321289 16 13.48042488098145 15.89463996887207 13.29288482666016 15.70710945129395 C 13.10534477233887 15.51956939697266 12.99999523162842 15.26522064208984 12.99999523162842 15 L 12.99999523162842 12 C 12.99999523162842 11.73478031158447 13.10535526275635 11.48042964935303 13.29288482666016 11.29288959503174 C 13.48042488098145 11.10534954071045 13.73477554321289 11 13.99999523162842 11 Z" stroke="none" fill="#fff"/>
  </g>
</svg>
