<svg id="user_1" data-name="user 1" xmlns="http://www.w3.org/2000/svg" width="24" height="24" viewBox="0 0 24 24">
  <rect id="user_1_Frame_Background_" data-name="user 1 [Frame Background]" width="24" height="24" fill="none"/>
  <path id="Vector" d="M4.048,10.07a1.3,1.3,0,0,1,.891,0,1.166,1.166,0,0,1,.376.223,1,1,0,0,1,.247.333.884.884,0,0,1-.022.778,1.017,1.017,0,0,1-.266.322,1.186,1.186,0,0,1-.388.207A4.05,4.05,0,0,0,3,13.246a3.269,3.269,0,0,0-.711,2.014V17a.94.94,0,0,0,.335.707,1.235,1.235,0,0,0,.81.293H12.6a1.235,1.235,0,0,0,.81-.293A.94.94,0,0,0,13.745,17V15.353a3.344,3.344,0,0,0-.74-2.076,4.153,4.153,0,0,0-1.959-1.343,1.191,1.191,0,0,1-.392-.2,1.022,1.022,0,0,1-.271-.32.9.9,0,0,1-.107-.387.886.886,0,0,1,.074-.392A.993.993,0,0,1,10.6,10.3a1.161,1.161,0,0,1,.374-.227,1.3,1.3,0,0,1,.893,0,6.423,6.423,0,0,1,3.029,2.076,5.173,5.173,0,0,1,1.145,3.21V17a2.821,2.821,0,0,1-1.006,2.121A3.705,3.705,0,0,1,12.6,20H3.436a3.705,3.705,0,0,1-2.43-.879A2.821,2.821,0,0,1,0,17V15.26a5.1,5.1,0,0,1,1.108-3.139,6.314,6.314,0,0,1,2.94-2.051ZM8.018,0a4.941,4.941,0,0,1,3.24,1.172A3.761,3.761,0,0,1,12.6,4V6a3.761,3.761,0,0,1-1.342,2.828A4.941,4.941,0,0,1,8.018,10a4.941,4.941,0,0,1-3.24-1.172A3.761,3.761,0,0,1,3.436,6V4A3.761,3.761,0,0,1,4.778,1.172,4.941,4.941,0,0,1,8.018,0Zm0,2a2.47,2.47,0,0,0-1.62.586A1.881,1.881,0,0,0,5.727,4V6A1.881,1.881,0,0,0,6.4,7.414a2.533,2.533,0,0,0,3.24,0A1.881,1.881,0,0,0,10.309,6V4a1.881,1.881,0,0,0-.671-1.414A2.47,2.47,0,0,0,8.018,2Z" transform="translate(3.982 2)" fill="#181725"/>
</svg>
