<svg xmlns="http://www.w3.org/2000/svg" width="21.97" height="19.563" viewBox="0 0 21.97 19.563">
  <path id="Vector" d="M8.521,19.563a2.445,2.445,0,1,1,1.729-.716A2.445,2.445,0,0,1,8.521,19.563Zm8.559,0a2.445,2.445,0,1,1,1.729-.716A2.445,2.445,0,0,1,17.08,19.563ZM1.138,2.351A1.176,1.176,0,0,1,1.138,0H2.546a2.352,2.352,0,0,1,2.3,1.841l1.532,6.9a2.352,2.352,0,0,0,2.3,1.841h9.185l1.763-7.055H8.192a1.176,1.176,0,0,1,0-2.35H19.618A2.351,2.351,0,0,1,21.9,4.1l-1.763,7.052a2.351,2.351,0,0,1-2.282,1.781H8.67A4.7,4.7,0,0,1,4.079,9.25l-1.533-6.9Z" fill="#181725"/>
</svg>
